<mxfile host="app.diagrams.net" modified="2024-05-06T11:23:52.881Z" agent="Mozilla/5.0 (Macintosh; Intel Mac OS X 10_15_7) AppleWebKit/537.36 (KHTML, like Gecko) Chrome/124.0.0.0 Safari/537.36" etag="ODKJ3_54H97QqsH6Zwqd" version="24.0.7" type="github">
  <diagram name="Page-1" id="z1gms9f3Nk4e7wVmOxTD">
    <mxGraphModel dx="1266" dy="615" grid="1" gridSize="10" guides="1" tooltips="1" connect="1" arrows="1" fold="1" page="1" pageScale="1" pageWidth="850" pageHeight="1100" math="0" shadow="0">
      <root>
        <mxCell id="0" />
        <mxCell id="1" parent="0" />
        <mxCell id="SIFjvIxjez2QV3AH_6Nm-1" value="" style="rounded=0;whiteSpace=wrap;html=1;fillColor=#dae8fc;strokeColor=#6c8ebf;" vertex="1" parent="1">
          <mxGeometry y="80" width="360" height="240" as="geometry" />
        </mxCell>
        <mxCell id="SIFjvIxjez2QV3AH_6Nm-2" value="" style="rounded=0;whiteSpace=wrap;html=1;fillColor=#d5e8d4;strokeColor=#82b366;" vertex="1" parent="1">
          <mxGeometry x="490" y="80" width="360" height="240" as="geometry" />
        </mxCell>
        <mxCell id="SIFjvIxjez2QV3AH_6Nm-3" value="OPS-M" style="text;html=1;align=center;verticalAlign=middle;whiteSpace=wrap;rounded=0;" vertex="1" parent="1">
          <mxGeometry x="150" y="80" width="60" height="30" as="geometry" />
        </mxCell>
        <mxCell id="SIFjvIxjez2QV3AH_6Nm-4" value="PC (Windows/Mac etc)" style="text;html=1;align=center;verticalAlign=middle;whiteSpace=wrap;rounded=0;" vertex="1" parent="1">
          <mxGeometry x="610" y="80" width="140" height="30" as="geometry" />
        </mxCell>
        <mxCell id="SIFjvIxjez2QV3AH_6Nm-6" value="" style="rounded=1;whiteSpace=wrap;html=1;fillColor=#fff2cc;strokeColor=#d6b656;" vertex="1" parent="1">
          <mxGeometry x="280" y="110" width="80" height="180" as="geometry" />
        </mxCell>
        <mxCell id="SIFjvIxjez2QV3AH_6Nm-7" value="" style="rounded=1;whiteSpace=wrap;html=1;fillColor=#fff2cc;strokeColor=#d6b656;" vertex="1" parent="1">
          <mxGeometry x="770" y="110" width="80" height="180" as="geometry" />
        </mxCell>
        <mxCell id="SIFjvIxjez2QV3AH_6Nm-8" value="transfer hub&lt;div&gt;(float window)&lt;/div&gt;" style="text;html=1;align=center;verticalAlign=middle;whiteSpace=wrap;rounded=0;" vertex="1" parent="1">
          <mxGeometry x="270" y="120" width="100" height="30" as="geometry" />
        </mxCell>
        <mxCell id="SIFjvIxjez2QV3AH_6Nm-9" value="transfer hub&lt;div&gt;(float window)&lt;/div&gt;" style="text;html=1;align=center;verticalAlign=middle;whiteSpace=wrap;rounded=0;" vertex="1" parent="1">
          <mxGeometry x="760" y="120" width="100" height="30" as="geometry" />
        </mxCell>
        <mxCell id="SIFjvIxjez2QV3AH_6Nm-10" value="Item 1(text)" style="rounded=0;whiteSpace=wrap;html=1;" vertex="1" parent="1">
          <mxGeometry x="280" y="160" width="80" height="40" as="geometry" />
        </mxCell>
        <mxCell id="SIFjvIxjez2QV3AH_6Nm-11" value="Item 1(text)" style="rounded=0;whiteSpace=wrap;html=1;" vertex="1" parent="1">
          <mxGeometry x="770" y="160" width="80" height="40" as="geometry" />
        </mxCell>
        <mxCell id="SIFjvIxjez2QV3AH_6Nm-13" value="Item 2(image)" style="rounded=0;whiteSpace=wrap;html=1;" vertex="1" parent="1">
          <mxGeometry x="280" y="200" width="80" height="40" as="geometry" />
        </mxCell>
        <mxCell id="SIFjvIxjez2QV3AH_6Nm-14" value="Item 2(image)" style="rounded=0;whiteSpace=wrap;html=1;" vertex="1" parent="1">
          <mxGeometry x="770" y="200" width="80" height="40" as="geometry" />
        </mxCell>
        <mxCell id="SIFjvIxjez2QV3AH_6Nm-15" value="file/text" style="rounded=0;whiteSpace=wrap;html=1;" vertex="1" parent="1">
          <mxGeometry x="10" y="230" width="80" height="40" as="geometry" />
        </mxCell>
        <mxCell id="SIFjvIxjez2QV3AH_6Nm-16" value="" style="endArrow=classic;html=1;rounded=0;entryX=0;entryY=0.75;entryDx=0;entryDy=0;" edge="1" parent="1" source="SIFjvIxjez2QV3AH_6Nm-15" target="SIFjvIxjez2QV3AH_6Nm-6">
          <mxGeometry width="50" height="50" relative="1" as="geometry">
            <mxPoint x="400" y="340" as="sourcePoint" />
            <mxPoint x="450" y="290" as="targetPoint" />
          </mxGeometry>
        </mxCell>
        <mxCell id="SIFjvIxjez2QV3AH_6Nm-17" value="Copy: drag to the transfer hub,&lt;div&gt;then the tranfer hub will add a new item 3&lt;/div&gt;" style="text;html=1;align=center;verticalAlign=middle;whiteSpace=wrap;rounded=0;" vertex="1" parent="1">
          <mxGeometry x="90" y="260" width="190" height="30" as="geometry" />
        </mxCell>
        <mxCell id="SIFjvIxjez2QV3AH_6Nm-18" value="" style="endArrow=classic;startArrow=classic;html=1;rounded=0;exitX=1;exitY=0;exitDx=0;exitDy=0;entryX=0;entryY=0;entryDx=0;entryDy=0;" edge="1" parent="1" source="SIFjvIxjez2QV3AH_6Nm-13" target="SIFjvIxjez2QV3AH_6Nm-14">
          <mxGeometry width="50" height="50" relative="1" as="geometry">
            <mxPoint x="370" y="180" as="sourcePoint" />
            <mxPoint x="450" y="290" as="targetPoint" />
          </mxGeometry>
        </mxCell>
        <mxCell id="SIFjvIxjez2QV3AH_6Nm-19" value="Sync the items from each devices" style="edgeLabel;html=1;align=center;verticalAlign=middle;resizable=0;points=[];" vertex="1" connectable="0" parent="SIFjvIxjez2QV3AH_6Nm-18">
          <mxGeometry x="-0.0146" y="-2" relative="1" as="geometry">
            <mxPoint x="-82" as="offset" />
          </mxGeometry>
        </mxCell>
        <mxCell id="SIFjvIxjez2QV3AH_6Nm-20" value="new file" style="rounded=0;whiteSpace=wrap;html=1;" vertex="1" parent="1">
          <mxGeometry x="500" y="260" width="80" height="40" as="geometry" />
        </mxCell>
        <mxCell id="SIFjvIxjez2QV3AH_6Nm-21" value="" style="endArrow=classic;html=1;rounded=0;exitX=0;exitY=0.5;exitDx=0;exitDy=0;entryX=1;entryY=0.5;entryDx=0;entryDy=0;" edge="1" parent="1" source="SIFjvIxjez2QV3AH_6Nm-14" target="SIFjvIxjez2QV3AH_6Nm-20">
          <mxGeometry width="50" height="50" relative="1" as="geometry">
            <mxPoint x="400" y="340" as="sourcePoint" />
            <mxPoint x="450" y="290" as="targetPoint" />
          </mxGeometry>
        </mxCell>
        <mxCell id="SIFjvIxjez2QV3AH_6Nm-22" value="&lt;div&gt;Paste: Drag an item from the transfer center, t&lt;span style=&quot;background-color: initial;&quot;&gt;he local computer will then create a new file, t&lt;/span&gt;&lt;span style=&quot;background-color: initial;&quot;&gt;he contents are the same as the files copied on other device.&lt;/span&gt;&lt;/div&gt;" style="text;html=1;align=center;verticalAlign=middle;whiteSpace=wrap;rounded=0;" vertex="1" parent="1">
          <mxGeometry x="600" y="220" width="160" height="90" as="geometry" />
        </mxCell>
      </root>
    </mxGraphModel>
  </diagram>
</mxfile>
